solid OpenSCAD_Model
  facet normal -1 0 0
    outer loop
      vertex 22.5 -2.24 27.2
      vertex 22.5 -2.12 27.48
      vertex 22.5 -2.12 27.2
    endloop
  endfacet
  facet normal -1 -0 0
    outer loop
      vertex 22.5 -2.12 27.48
      vertex 22.5 -2.24 27.2
      vertex 22.5 -2.24 27.48
    endloop
  endfacet
  facet normal 0 0 -1
    outer loop
      vertex -22.5 -2.24 27.48
      vertex 22.5 -2.12 27.48
      vertex 22.5 -2.24 27.48
    endloop
  endfacet
  facet normal -0 0 -1
    outer loop
      vertex 22.5 -2.12 27.48
      vertex -22.5 -2.24 27.48
      vertex -22.5 -2.12 27.48
    endloop
  endfacet
  facet normal -0 0 1
    outer loop
      vertex -22.5 -2.12 27.2
      vertex 22.5 -2.24 27.2
      vertex 22.5 -2.12 27.2
    endloop
  endfacet
  facet normal 0 0 1
    outer loop
      vertex 22.5 -2.24 27.2
      vertex -22.5 -2.12 27.2
      vertex -22.5 -2.24 27.2
    endloop
  endfacet
  facet normal 1 -0 0
    outer loop
      vertex -22.5 -2.24 27.48
      vertex -22.5 -2.12 27.2
      vertex -22.5 -2.12 27.48
    endloop
  endfacet
  facet normal 1 0 0
    outer loop
      vertex -22.5 -2.12 27.2
      vertex -22.5 -2.24 27.48
      vertex -22.5 -2.24 27.2
    endloop
  endfacet
  facet normal 0 -1 0
    outer loop
      vertex -22.5 -2.12 27.2
      vertex 22.5 -2.12 27.48
      vertex -22.5 -2.12 27.48
    endloop
  endfacet
  facet normal 0 -1 -0
    outer loop
      vertex 22.5 -2.12 27.48
      vertex -22.5 -2.12 27.2
      vertex 22.5 -2.12 27.2
    endloop
  endfacet
  facet normal -1 0 0
    outer loop
      vertex 22.5 -2.24 30.4
      vertex 22.5 -2.12 30.68
      vertex 22.5 -2.12 30.4
    endloop
  endfacet
  facet normal -1 -0 0
    outer loop
      vertex 22.5 -2.12 30.68
      vertex 22.5 -2.24 30.4
      vertex 22.5 -2.24 30.68
    endloop
  endfacet
  facet normal 0 0 -1
    outer loop
      vertex -22.5 -2.24 30.68
      vertex 22.5 -2.12 30.68
      vertex 22.5 -2.24 30.68
    endloop
  endfacet
  facet normal -0 0 -1
    outer loop
      vertex 22.5 -2.12 30.68
      vertex -22.5 -2.24 30.68
      vertex -22.5 -2.12 30.68
    endloop
  endfacet
  facet normal -0 0 1
    outer loop
      vertex -22.5 -2.12 30.4
      vertex 22.5 -2.24 30.4
      vertex 22.5 -2.12 30.4
    endloop
  endfacet
  facet normal 0 0 1
    outer loop
      vertex 22.5 -2.24 30.4
      vertex -22.5 -2.12 30.4
      vertex -22.5 -2.24 30.4
    endloop
  endfacet
  facet normal 1 -0 0
    outer loop
      vertex -22.5 -2.24 30.68
      vertex -22.5 -2.12 30.4
      vertex -22.5 -2.12 30.68
    endloop
  endfacet
  facet normal 1 0 0
    outer loop
      vertex -22.5 -2.12 30.4
      vertex -22.5 -2.24 30.68
      vertex -22.5 -2.24 30.4
    endloop
  endfacet
  facet normal 0 -1 0
    outer loop
      vertex -22.5 -2.12 30.4
      vertex 22.5 -2.12 30.68
      vertex -22.5 -2.12 30.68
    endloop
  endfacet
  facet normal 0 -1 -0
    outer loop
      vertex 22.5 -2.12 30.68
      vertex -22.5 -2.12 30.4
      vertex 22.5 -2.12 30.4
    endloop
  endfacet
  facet normal -1 0 0
    outer loop
      vertex 22.5 -2.24 33.6
      vertex 22.5 -2.12 33.88
      vertex 22.5 -2.12 33.6
    endloop
  endfacet
  facet normal -1 -0 0
    outer loop
      vertex 22.5 -2.12 33.88
      vertex 22.5 -2.24 33.6
      vertex 22.5 -2.24 33.88
    endloop
  endfacet
  facet normal 0 0 -1
    outer loop
      vertex -22.5 -2.24 33.88
      vertex 22.5 -2.12 33.88
      vertex 22.5 -2.24 33.88
    endloop
  endfacet
  facet normal -0 0 -1
    outer loop
      vertex 22.5 -2.12 33.88
      vertex -22.5 -2.24 33.88
      vertex -22.5 -2.12 33.88
    endloop
  endfacet
  facet normal -0 0 1
    outer loop
      vertex -22.5 -2.12 33.6
      vertex 22.5 -2.24 33.6
      vertex 22.5 -2.12 33.6
    endloop
  endfacet
  facet normal 0 0 1
    outer loop
      vertex 22.5 -2.24 33.6
      vertex -22.5 -2.12 33.6
      vertex -22.5 -2.24 33.6
    endloop
  endfacet
  facet normal 1 -0 0
    outer loop
      vertex -22.5 -2.24 33.88
      vertex -22.5 -2.12 33.6
      vertex -22.5 -2.12 33.88
    endloop
  endfacet
  facet normal 1 0 0
    outer loop
      vertex -22.5 -2.12 33.6
      vertex -22.5 -2.24 33.88
      vertex -22.5 -2.24 33.6
    endloop
  endfacet
  facet normal 0 -1 0
    outer loop
      vertex -22.5 -2.12 33.6
      vertex 22.5 -2.12 33.88
      vertex -22.5 -2.12 33.88
    endloop
  endfacet
  facet normal 0 -1 -0
    outer loop
      vertex 22.5 -2.12 33.88
      vertex -22.5 -2.12 33.6
      vertex 22.5 -2.12 33.6
    endloop
  endfacet
  facet normal -1 0 0
    outer loop
      vertex 22.5 -2.24 36.8
      vertex 22.5 -2.12 37.08
      vertex 22.5 -2.12 36.8
    endloop
  endfacet
  facet normal -1 -0 0
    outer loop
      vertex 22.5 -2.12 37.08
      vertex 22.5 -2.24 36.8
      vertex 22.5 -2.24 37.08
    endloop
  endfacet
  facet normal 0 0 -1
    outer loop
      vertex -16.6044 -2.24 37.08
      vertex -22.5 -2.24 37.08
      vertex -16.6044 -2.18 37.08
    endloop
  endfacet
  facet normal 0 0 -1
    outer loop
      vertex -15.5035 -2.24 37.08
      vertex 22.5 -2.12 37.08
      vertex 22.5 -2.24 37.08
    endloop
  endfacet
  facet normal 0 0 -1
    outer loop
      vertex -15.5035 -2.18 37.08
      vertex 22.5 -2.12 37.08
      vertex -15.5035 -2.24 37.08
    endloop
  endfacet
  facet normal 0 0 -1
    outer loop
      vertex -16.6044 -2.18 37.08
      vertex 22.5 -2.12 37.08
      vertex -15.5035 -2.18 37.08
    endloop
  endfacet
  facet normal 0 0 -1
    outer loop
      vertex -16.6044 -2.18 37.08
      vertex -22.5 -2.12 37.08
      vertex 22.5 -2.12 37.08
    endloop
  endfacet
  facet normal 0 0 -1
    outer loop
      vertex -22.5 -2.12 37.08
      vertex -16.6044 -2.18 37.08
      vertex -22.5 -2.24 37.08
    endloop
  endfacet
  facet normal 0 0 1
    outer loop
      vertex 22.5 -2.12 36.8
      vertex -16.091 -2.18 36.8
      vertex 22.5 -2.24 36.8
    endloop
  endfacet
  facet normal 0 0 1
    outer loop
      vertex 22.5 -2.12 36.8
      vertex -16.4819 -2.18 36.8
      vertex -16.091 -2.18 36.8
    endloop
  endfacet
  facet normal -0 0 1
    outer loop
      vertex -22.5 -2.12 36.8
      vertex -16.4819 -2.18 36.8
      vertex 22.5 -2.12 36.8
    endloop
  endfacet
  facet normal 0 0 1
    outer loop
      vertex -22.5 -2.12 36.8
      vertex -16.4819 -2.24 36.8
      vertex -16.4819 -2.18 36.8
    endloop
  endfacet
  facet normal 0 0 1
    outer loop
      vertex -16.4819 -2.24 36.8
      vertex -22.5 -2.12 36.8
      vertex -22.5 -2.24 36.8
    endloop
  endfacet
  facet normal 0 0 1
    outer loop
      vertex 22.5 -2.24 36.8
      vertex -16.091 -2.18 36.8
      vertex -16.091 -2.24 36.8
    endloop
  endfacet
  facet normal 1 -0 0
    outer loop
      vertex -22.5 -2.24 37.08
      vertex -22.5 -2.12 36.8
      vertex -22.5 -2.12 37.08
    endloop
  endfacet
  facet normal 1 0 0
    outer loop
      vertex -22.5 -2.12 36.8
      vertex -22.5 -2.24 37.08
      vertex -22.5 -2.24 36.8
    endloop
  endfacet
  facet normal 0 -1 0
    outer loop
      vertex -22.5 -2.12 36.8
      vertex 22.5 -2.12 37.08
      vertex -22.5 -2.12 37.08
    endloop
  endfacet
  facet normal 0 -1 -0
    outer loop
      vertex 22.5 -2.12 37.08
      vertex -22.5 -2.12 36.8
      vertex 22.5 -2.12 36.8
    endloop
  endfacet
  facet normal -1 0 0
    outer loop
      vertex 22.5 -2.24 40
      vertex 22.5 -2.12 40.28
      vertex 22.5 -2.12 40
    endloop
  endfacet
  facet normal -1 -0 0
    outer loop
      vertex 22.5 -2.12 40.28
      vertex 22.5 -2.24 40
      vertex 22.5 -2.24 40.28
    endloop
  endfacet
  facet normal 0 0 -1
    outer loop
      vertex -16.6437 -2.24 40.28
      vertex -22.5 -2.24 40.28
      vertex -16.6437 -2.18 40.28
    endloop
  endfacet
  facet normal 0 0 -1
    outer loop
      vertex -15.3111 -2.24 40.28
      vertex 22.5 -2.12 40.28
      vertex 22.5 -2.24 40.28
    endloop
  endfacet
  facet normal 0 0 -1
    outer loop
      vertex -15.3111 -2.18 40.28
      vertex 22.5 -2.12 40.28
      vertex -15.3111 -2.24 40.28
    endloop
  endfacet
  facet normal 0 0 -1
    outer loop
      vertex -16.6437 -2.18 40.28
      vertex 22.5 -2.12 40.28
      vertex -15.3111 -2.18 40.28
    endloop
  endfacet
  facet normal 0 0 -1
    outer loop
      vertex -16.6437 -2.18 40.28
      vertex -22.5 -2.12 40.28
      vertex 22.5 -2.12 40.28
    endloop
  endfacet
  facet normal 0 0 -1
    outer loop
      vertex -22.5 -2.12 40.28
      vertex -16.6437 -2.18 40.28
      vertex -22.5 -2.24 40.28
    endloop
  endfacet
  facet normal 0 0 1
    outer loop
      vertex 22.5 -2.12 40
      vertex -14.7073 -2.18 40
      vertex 22.5 -2.24 40
    endloop
  endfacet
  facet normal 0 0 1
    outer loop
      vertex 22.5 -2.12 40
      vertex -16.4892 -2.18 40
      vertex -14.7073 -2.18 40
    endloop
  endfacet
  facet normal -0 0 1
    outer loop
      vertex -22.5 -2.12 40
      vertex -16.4892 -2.18 40
      vertex 22.5 -2.12 40
    endloop
  endfacet
  facet normal 0 0 1
    outer loop
      vertex -22.5 -2.12 40
      vertex -16.4892 -2.24 40
      vertex -16.4892 -2.18 40
    endloop
  endfacet
  facet normal 0 0 1
    outer loop
      vertex -16.4892 -2.24 40
      vertex -22.5 -2.12 40
      vertex -22.5 -2.24 40
    endloop
  endfacet
  facet normal 0 0 1
    outer loop
      vertex 22.5 -2.24 40
      vertex -14.7073 -2.18 40
      vertex -14.7073 -2.24 40
    endloop
  endfacet
  facet normal 1 -0 0
    outer loop
      vertex -22.5 -2.24 40.28
      vertex -22.5 -2.12 40
      vertex -22.5 -2.12 40.28
    endloop
  endfacet
  facet normal 1 0 0
    outer loop
      vertex -22.5 -2.12 40
      vertex -22.5 -2.24 40.28
      vertex -22.5 -2.24 40
    endloop
  endfacet
  facet normal 0 -1 0
    outer loop
      vertex -22.5 -2.12 40
      vertex 22.5 -2.12 40.28
      vertex -22.5 -2.12 40.28
    endloop
  endfacet
  facet normal 0 -1 -0
    outer loop
      vertex 22.5 -2.12 40.28
      vertex -22.5 -2.12 40
      vertex 22.5 -2.12 40
    endloop
  endfacet
  facet normal -1 0 0
    outer loop
      vertex 22.5 -2.24 43.2
      vertex 22.5 -2.12 43.48
      vertex 22.5 -2.12 43.2
    endloop
  endfacet
  facet normal -1 -0 0
    outer loop
      vertex 22.5 -2.12 43.48
      vertex 22.5 -2.24 43.2
      vertex 22.5 -2.24 43.48
    endloop
  endfacet
  facet normal 0 0 -1
    outer loop
      vertex -22.5 -2.24 43.48
      vertex 22.5 -2.12 43.48
      vertex 22.5 -2.24 43.48
    endloop
  endfacet
  facet normal -0 0 -1
    outer loop
      vertex 22.5 -2.12 43.48
      vertex -22.5 -2.24 43.48
      vertex -22.5 -2.12 43.48
    endloop
  endfacet
  facet normal -0 0 1
    outer loop
      vertex -22.5 -2.12 43.2
      vertex 22.5 -2.24 43.2
      vertex 22.5 -2.12 43.2
    endloop
  endfacet
  facet normal 0 0 1
    outer loop
      vertex 22.5 -2.24 43.2
      vertex -22.5 -2.12 43.2
      vertex -22.5 -2.24 43.2
    endloop
  endfacet
  facet normal 1 -0 0
    outer loop
      vertex -22.5 -2.24 43.48
      vertex -22.5 -2.12 43.2
      vertex -22.5 -2.12 43.48
    endloop
  endfacet
  facet normal 1 0 0
    outer loop
      vertex -22.5 -2.12 43.2
      vertex -22.5 -2.24 43.48
      vertex -22.5 -2.24 43.2
    endloop
  endfacet
  facet normal 0 -1 0
    outer loop
      vertex -22.5 -2.12 43.2
      vertex 22.5 -2.12 43.48
      vertex -22.5 -2.12 43.48
    endloop
  endfacet
  facet normal 0 -1 -0
    outer loop
      vertex 22.5 -2.12 43.48
      vertex -22.5 -2.12 43.2
      vertex 22.5 -2.12 43.2
    endloop
  endfacet
  facet normal -1 0 0
    outer loop
      vertex 22.5 -2.24 46.4
      vertex 22.5 -2.12 46.68
      vertex 22.5 -2.12 46.4
    endloop
  endfacet
  facet normal -1 -0 0
    outer loop
      vertex 22.5 -2.12 46.68
      vertex 22.5 -2.24 46.4
      vertex 22.5 -2.24 46.68
    endloop
  endfacet
  facet normal 0 0 -1
    outer loop
      vertex -22.5 -2.24 46.68
      vertex 22.5 -2.12 46.68
      vertex 22.5 -2.24 46.68
    endloop
  endfacet
  facet normal -0 0 -1
    outer loop
      vertex 22.5 -2.12 46.68
      vertex -22.5 -2.24 46.68
      vertex -22.5 -2.12 46.68
    endloop
  endfacet
  facet normal -0 0 1
    outer loop
      vertex -22.5 -2.12 46.4
      vertex 22.5 -2.24 46.4
      vertex 22.5 -2.12 46.4
    endloop
  endfacet
  facet normal 0 0 1
    outer loop
      vertex 22.5 -2.24 46.4
      vertex -22.5 -2.12 46.4
      vertex -22.5 -2.24 46.4
    endloop
  endfacet
  facet normal 1 -0 0
    outer loop
      vertex -22.5 -2.24 46.68
      vertex -22.5 -2.12 46.4
      vertex -22.5 -2.12 46.68
    endloop
  endfacet
  facet normal 1 0 0
    outer loop
      vertex -22.5 -2.12 46.4
      vertex -22.5 -2.24 46.68
      vertex -22.5 -2.24 46.4
    endloop
  endfacet
  facet normal 0 -1 0
    outer loop
      vertex -22.5 -2.12 46.4
      vertex 22.5 -2.12 46.68
      vertex -22.5 -2.12 46.68
    endloop
  endfacet
  facet normal 0 -1 -0
    outer loop
      vertex 22.5 -2.12 46.68
      vertex -22.5 -2.12 46.4
      vertex 22.5 -2.12 46.4
    endloop
  endfacet
  facet normal -1 0 0
    outer loop
      vertex 22.5 -2.24 49.6
      vertex 22.5 -2.12 49.88
      vertex 22.5 -2.12 49.6
    endloop
  endfacet
  facet normal -1 -0 0
    outer loop
      vertex 22.5 -2.12 49.88
      vertex 22.5 -2.24 49.6
      vertex 22.5 -2.24 49.88
    endloop
  endfacet
  facet normal 0 0 -1
    outer loop
      vertex -22.5 -2.24 49.88
      vertex 22.5 -2.12 49.88
      vertex 22.5 -2.24 49.88
    endloop
  endfacet
  facet normal -0 0 -1
    outer loop
      vertex 22.5 -2.12 49.88
      vertex -22.5 -2.24 49.88
      vertex -22.5 -2.12 49.88
    endloop
  endfacet
  facet normal -0 0 1
    outer loop
      vertex -22.5 -2.12 49.6
      vertex 22.5 -2.24 49.6
      vertex 22.5 -2.12 49.6
    endloop
  endfacet
  facet normal 0 0 1
    outer loop
      vertex 22.5 -2.24 49.6
      vertex -22.5 -2.12 49.6
      vertex -22.5 -2.24 49.6
    endloop
  endfacet
  facet normal 1 -0 0
    outer loop
      vertex -22.5 -2.24 49.88
      vertex -22.5 -2.12 49.6
      vertex -22.5 -2.12 49.88
    endloop
  endfacet
  facet normal 1 0 0
    outer loop
      vertex -22.5 -2.12 49.6
      vertex -22.5 -2.24 49.88
      vertex -22.5 -2.24 49.6
    endloop
  endfacet
  facet normal 0 -1 0
    outer loop
      vertex -22.5 -2.12 49.6
      vertex 22.5 -2.12 49.88
      vertex -22.5 -2.12 49.88
    endloop
  endfacet
  facet normal 0 -1 -0
    outer loop
      vertex 22.5 -2.12 49.88
      vertex -22.5 -2.12 49.6
      vertex 22.5 -2.12 49.6
    endloop
  endfacet
  facet normal 0.980797 -0 0.195033
    outer loop
      vertex 25.5029 -2.24 50.7876
      vertex 25.5756 -1.42 50.422
      vertex 25.5029 -1.42 50.7876
    endloop
  endfacet
  facet normal 0.980797 0 0.195033
    outer loop
      vertex 25.5756 -1.42 50.422
      vertex 25.5029 -2.24 50.7876
      vertex 25.5756 -2.24 50.422
    endloop
  endfacet
  facet normal 0.0654508 0 -0.997856
    outer loop
      vertex 22.75 -2.24 24.3
      vertex 23.122 -1.42 24.3244
      vertex 23.122 -2.24 24.3244
    endloop
  endfacet
  facet normal 0.0654508 0 -0.997856
    outer loop
      vertex 23.122 -1.42 24.3244
      vertex 22.75 -2.24 24.3
      vertex 22.75 -1.42 24.3
    endloop
  endfacet
  facet normal 0.195033 0 0.980797
    outer loop
      vertex 23.122 -1.42 52.8756
      vertex 23.4876 -2.24 52.8029
      vertex 23.4876 -1.42 52.8029
    endloop
  endfacet
  facet normal 0.195033 0 0.980797
    outer loop
      vertex 23.4876 -2.24 52.8029
      vertex 23.122 -1.42 52.8756
      vertex 23.122 -2.24 52.8756
    endloop
  endfacet
  facet normal 0.555505 0 -0.831513
    outer loop
      vertex 24.175 -2.24 24.6818
      vertex 24.485 -1.42 24.8889
      vertex 24.485 -2.24 24.8889
    endloop
  endfacet
  facet normal 0.555505 0 -0.831513
    outer loop
      vertex 24.485 -1.42 24.8889
      vertex 24.175 -2.24 24.6818
      vertex 24.175 -1.42 24.6818
    endloop
  endfacet
  facet normal -0.442378 0 -0.896829
    outer loop
      vertex -24.175 -2.24 24.6818
      vertex -23.8407 -1.42 24.5169
      vertex -23.8407 -2.24 24.5169
    endloop
  endfacet
  facet normal -0.442378 0 -0.896829
    outer loop
      vertex -23.8407 -1.42 24.5169
      vertex -24.175 -2.24 24.6818
      vertex -24.175 -1.42 24.6818
    endloop
  endfacet
  facet normal 0.442378 0 0.896829
    outer loop
      vertex 23.8407 -1.42 52.6831
      vertex 24.175 -2.24 52.5182
      vertex 24.175 -1.42 52.5182
    endloop
  endfacet
  facet normal 0.442378 0 0.896829
    outer loop
      vertex 24.175 -2.24 52.5182
      vertex 23.8407 -1.42 52.6831
      vertex 23.8407 -2.24 52.6831
    endloop
  endfacet
  facet normal 0.442378 0 -0.896829
    outer loop
      vertex 23.8407 -2.24 24.5169
      vertex 24.175 -1.42 24.6818
      vertex 24.175 -2.24 24.6818
    endloop
  endfacet
  facet normal 0.442378 0 -0.896829
    outer loop
      vertex 24.175 -1.42 24.6818
      vertex 23.8407 -2.24 24.5169
      vertex 23.8407 -1.42 24.5169
    endloop
  endfacet
  facet normal -0.442378 0 0.896829
    outer loop
      vertex -24.175 -1.42 52.5182
      vertex -23.8407 -2.24 52.6831
      vertex -23.8407 -1.42 52.6831
    endloop
  endfacet
  facet normal -0.442378 0 0.896829
    outer loop
      vertex -23.8407 -2.24 52.6831
      vertex -24.175 -1.42 52.5182
      vertex -24.175 -2.24 52.5182
    endloop
  endfacet
  facet normal 0 0 -1
    outer loop
      vertex -22.75 -2.24 24.3
      vertex 22.75 -1.42 24.3
      vertex 22.75 -2.24 24.3
    endloop
  endfacet
  facet normal -0 0 -1
    outer loop
      vertex 22.75 -1.42 24.3
      vertex -22.75 -2.24 24.3
      vertex -22.75 -1.42 24.3
    endloop
  endfacet
  facet normal -0 0 1
    outer loop
      vertex -22.75 -1.42 52.9
      vertex 22.75 -2.24 52.9
      vertex 22.75 -1.42 52.9
    endloop
  endfacet
  facet normal 0 0 1
    outer loop
      vertex 22.75 -2.24 52.9
      vertex -22.75 -1.42 52.9
      vertex -22.75 -2.24 52.9
    endloop
  endfacet
  facet normal 0.751862 0 -0.659321
    outer loop
      vertex 25.0111 -2.24 25.415
      vertex 24.7653 -1.42 25.1347
      vertex 25.0111 -1.42 25.415
    endloop
  endfacet
  facet normal 0.751862 0 -0.659321
    outer loop
      vertex 24.7653 -1.42 25.1347
      vertex 25.0111 -2.24 25.415
      vertex 24.7653 -2.24 25.1347
    endloop
  endfacet
  facet normal -0.195033 0 -0.980797
    outer loop
      vertex -23.4876 -2.24 24.3971
      vertex -23.122 -1.42 24.3244
      vertex -23.122 -2.24 24.3244
    endloop
  endfacet
  facet normal -0.195033 0 -0.980797
    outer loop
      vertex -23.122 -1.42 24.3244
      vertex -23.4876 -2.24 24.3971
      vertex -23.4876 -1.42 24.3971
    endloop
  endfacet
  facet normal -0.0654508 0 0.997856
    outer loop
      vertex -23.122 -1.42 52.8756
      vertex -22.75 -2.24 52.9
      vertex -22.75 -1.42 52.9
    endloop
  endfacet
  facet normal -0.0654508 0 0.997856
    outer loop
      vertex -22.75 -2.24 52.9
      vertex -23.122 -1.42 52.8756
      vertex -23.122 -2.24 52.8756
    endloop
  endfacet
  facet normal -1 0 0
    outer loop
      vertex -25.6 -2.24 27.15
      vertex -25.6 -1.42 50.05
      vertex -25.6 -1.42 27.15
    endloop
  endfacet
  facet normal -1 -0 0
    outer loop
      vertex -25.6 -1.42 50.05
      vertex -25.6 -2.24 27.15
      vertex -25.6 -2.24 50.05
    endloop
  endfacet
  facet normal -0.94698 0 -0.321292
    outer loop
      vertex -25.3831 -2.24 26.0593
      vertex -25.5029 -1.42 26.4124
      vertex -25.3831 -1.42 26.0593
    endloop
  endfacet
  facet normal -0.94698 -0 -0.321292
    outer loop
      vertex -25.5029 -1.42 26.4124
      vertex -25.3831 -2.24 26.0593
      vertex -25.5029 -2.24 26.4124
    endloop
  endfacet
  facet normal -0.195033 0 0.980797
    outer loop
      vertex -23.4876 -1.42 52.8029
      vertex -23.122 -2.24 52.8756
      vertex -23.122 -1.42 52.8756
    endloop
  endfacet
  facet normal -0.195033 0 0.980797
    outer loop
      vertex -23.122 -2.24 52.8756
      vertex -23.4876 -1.42 52.8029
      vertex -23.4876 -2.24 52.8029
    endloop
  endfacet
  facet normal -0.0654508 0 -0.997856
    outer loop
      vertex -23.122 -2.24 24.3244
      vertex -22.75 -1.42 24.3
      vertex -22.75 -2.24 24.3
    endloop
  endfacet
  facet normal -0.0654508 0 -0.997856
    outer loop
      vertex -22.75 -1.42 24.3
      vertex -23.122 -2.24 24.3244
      vertex -23.122 -1.42 24.3244
    endloop
  endfacet
  facet normal 0.0654508 0 0.997856
    outer loop
      vertex 22.75 -1.42 52.9
      vertex 23.122 -2.24 52.8756
      vertex 23.122 -1.42 52.8756
    endloop
  endfacet
  facet normal 0.0654508 0 0.997856
    outer loop
      vertex 23.122 -2.24 52.8756
      vertex 22.75 -1.42 52.9
      vertex 22.75 -2.24 52.9
    endloop
  endfacet
  facet normal -0.321292 0 -0.94698
    outer loop
      vertex -23.8407 -2.24 24.5169
      vertex -23.4876 -1.42 24.3971
      vertex -23.4876 -2.24 24.3971
    endloop
  endfacet
  facet normal -0.321292 0 -0.94698
    outer loop
      vertex -23.4876 -1.42 24.3971
      vertex -23.8407 -2.24 24.5169
      vertex -23.8407 -1.42 24.5169
    endloop
  endfacet
  facet normal -0.659321 0 -0.751862
    outer loop
      vertex -24.7653 -2.24 25.1347
      vertex -24.485 -1.42 24.8889
      vertex -24.485 -2.24 24.8889
    endloop
  endfacet
  facet normal -0.659321 0 -0.751862
    outer loop
      vertex -24.485 -1.42 24.8889
      vertex -24.7653 -2.24 25.1347
      vertex -24.7653 -1.42 25.1347
    endloop
  endfacet
  facet normal 0.997856 -0 0.0654508
    outer loop
      vertex 25.5756 -2.24 50.422
      vertex 25.6 -1.42 50.05
      vertex 25.5756 -1.42 50.422
    endloop
  endfacet
  facet normal 0.997856 0 0.0654508
    outer loop
      vertex 25.6 -1.42 50.05
      vertex 25.5756 -2.24 50.422
      vertex 25.6 -2.24 50.05
    endloop
  endfacet
  facet normal -0.997856 0 0.0654508
    outer loop
      vertex -25.6 -2.24 50.05
      vertex -25.5756 -1.42 50.422
      vertex -25.6 -1.42 50.05
    endloop
  endfacet
  facet normal -0.997856 0 0.0654508
    outer loop
      vertex -25.5756 -1.42 50.422
      vertex -25.6 -2.24 50.05
      vertex -25.5756 -2.24 50.422
    endloop
  endfacet
  facet normal 0.946952 -0 0.321374
    outer loop
      vertex 25.3831 -2.24 51.1406
      vertex 25.5029 -1.42 50.7876
      vertex 25.3831 -1.42 51.1406
    endloop
  endfacet
  facet normal 0.946952 0 0.321374
    outer loop
      vertex 25.5029 -1.42 50.7876
      vertex 25.3831 -2.24 51.1406
      vertex 25.5029 -2.24 50.7876
    endloop
  endfacet
  facet normal -0.555505 0 -0.831513
    outer loop
      vertex -24.485 -2.24 24.8889
      vertex -24.175 -1.42 24.6818
      vertex -24.175 -2.24 24.6818
    endloop
  endfacet
  facet normal -0.555505 0 -0.831513
    outer loop
      vertex -24.175 -1.42 24.6818
      vertex -24.485 -2.24 24.8889
      vertex -24.485 -1.42 24.8889
    endloop
  endfacet
  facet normal -0.321292 0 0.94698
    outer loop
      vertex -23.8407 -1.42 52.6831
      vertex -23.4876 -2.24 52.8029
      vertex -23.4876 -1.42 52.8029
    endloop
  endfacet
  facet normal -0.321292 0 0.94698
    outer loop
      vertex -23.4876 -2.24 52.8029
      vertex -23.8407 -1.42 52.6831
      vertex -23.8407 -2.24 52.6831
    endloop
  endfacet
  facet normal -0.980797 0 0.195033
    outer loop
      vertex -25.5756 -2.24 50.422
      vertex -25.5029 -1.42 50.7876
      vertex -25.5756 -1.42 50.422
    endloop
  endfacet
  facet normal -0.980797 0 0.195033
    outer loop
      vertex -25.5029 -1.42 50.7876
      vertex -25.5756 -2.24 50.422
      vertex -25.5029 -2.24 50.7876
    endloop
  endfacet
  facet normal 0.321292 0 0.94698
    outer loop
      vertex 23.4876 -1.42 52.8029
      vertex 23.8407 -2.24 52.6831
      vertex 23.8407 -1.42 52.6831
    endloop
  endfacet
  facet normal 0.321292 0 0.94698
    outer loop
      vertex 23.8407 -2.24 52.6831
      vertex 23.4876 -1.42 52.8029
      vertex 23.4876 -2.24 52.8029
    endloop
  endfacet
  facet normal -0.751862 0 -0.659321
    outer loop
      vertex -24.7653 -2.24 25.1347
      vertex -25.0111 -1.42 25.415
      vertex -24.7653 -1.42 25.1347
    endloop
  endfacet
  facet normal -0.751862 -0 -0.659321
    outer loop
      vertex -25.0111 -1.42 25.415
      vertex -24.7653 -2.24 25.1347
      vertex -25.0111 -2.24 25.415
    endloop
  endfacet
  facet normal 0.896829 0 -0.442378
    outer loop
      vertex 25.3831 -2.24 26.0593
      vertex 25.2182 -1.42 25.725
      vertex 25.3831 -1.42 26.0593
    endloop
  endfacet
  facet normal 0.896829 0 -0.442378
    outer loop
      vertex 25.2182 -1.42 25.725
      vertex 25.3831 -2.24 26.0593
      vertex 25.2182 -2.24 25.725
    endloop
  endfacet
  facet normal 0.659321 0 0.751862
    outer loop
      vertex 24.485 -1.42 52.3111
      vertex 24.7653 -2.24 52.0653
      vertex 24.7653 -1.42 52.0653
    endloop
  endfacet
  facet normal 0.659321 0 0.751862
    outer loop
      vertex 24.7653 -2.24 52.0653
      vertex 24.485 -1.42 52.3111
      vertex 24.485 -2.24 52.3111
    endloop
  endfacet
  facet normal 0.831513 -0 0.555505
    outer loop
      vertex 25.0111 -2.24 51.785
      vertex 25.2182 -1.42 51.475
      vertex 25.0111 -1.42 51.785
    endloop
  endfacet
  facet normal 0.831513 0 0.555505
    outer loop
      vertex 25.2182 -1.42 51.475
      vertex 25.0111 -2.24 51.785
      vertex 25.2182 -2.24 51.475
    endloop
  endfacet
  facet normal 0.659321 0 -0.751862
    outer loop
      vertex 24.485 -2.24 24.8889
      vertex 24.7653 -1.42 25.1347
      vertex 24.7653 -2.24 25.1347
    endloop
  endfacet
  facet normal 0.659321 0 -0.751862
    outer loop
      vertex 24.7653 -1.42 25.1347
      vertex 24.485 -2.24 24.8889
      vertex 24.485 -1.42 24.8889
    endloop
  endfacet
  facet normal -0.946952 0 0.321374
    outer loop
      vertex -25.5029 -2.24 50.7876
      vertex -25.3831 -1.42 51.1406
      vertex -25.5029 -1.42 50.7876
    endloop
  endfacet
  facet normal -0.946952 0 0.321374
    outer loop
      vertex -25.3831 -1.42 51.1406
      vertex -25.5029 -2.24 50.7876
      vertex -25.3831 -2.24 51.1406
    endloop
  endfacet
  facet normal 1 -0 0
    outer loop
      vertex 25.6 -2.24 50.05
      vertex 25.6 -1.42 27.15
      vertex 25.6 -1.42 50.05
    endloop
  endfacet
  facet normal 1 0 0
    outer loop
      vertex 25.6 -1.42 27.15
      vertex 25.6 -2.24 50.05
      vertex 25.6 -2.24 27.15
    endloop
  endfacet
  facet normal -0.751862 0 0.659321
    outer loop
      vertex -25.0111 -2.24 51.785
      vertex -24.7653 -1.42 52.0653
      vertex -25.0111 -1.42 51.785
    endloop
  endfacet
  facet normal -0.751862 0 0.659321
    outer loop
      vertex -24.7653 -1.42 52.0653
      vertex -25.0111 -2.24 51.785
      vertex -24.7653 -2.24 52.0653
    endloop
  endfacet
  facet normal -0.555505 0 0.831513
    outer loop
      vertex -24.485 -1.42 52.3111
      vertex -24.175 -2.24 52.5182
      vertex -24.175 -1.42 52.5182
    endloop
  endfacet
  facet normal -0.555505 0 0.831513
    outer loop
      vertex -24.175 -2.24 52.5182
      vertex -24.485 -1.42 52.3111
      vertex -24.485 -2.24 52.3111
    endloop
  endfacet
  facet normal 0.195033 0 -0.980797
    outer loop
      vertex 23.122 -2.24 24.3244
      vertex 23.4876 -1.42 24.3971
      vertex 23.4876 -2.24 24.3971
    endloop
  endfacet
  facet normal 0.195033 0 -0.980797
    outer loop
      vertex 23.4876 -1.42 24.3971
      vertex 23.122 -2.24 24.3244
      vertex 23.122 -1.42 24.3244
    endloop
  endfacet
  facet normal -0.659321 0 0.751862
    outer loop
      vertex -24.7653 -1.42 52.0653
      vertex -24.485 -2.24 52.3111
      vertex -24.485 -1.42 52.3111
    endloop
  endfacet
  facet normal -0.659321 0 0.751862
    outer loop
      vertex -24.485 -2.24 52.3111
      vertex -24.7653 -1.42 52.0653
      vertex -24.7653 -2.24 52.0653
    endloop
  endfacet
  facet normal -0.831513 0 -0.555505
    outer loop
      vertex -25.0111 -2.24 25.415
      vertex -25.2182 -1.42 25.725
      vertex -25.0111 -1.42 25.415
    endloop
  endfacet
  facet normal -0.831513 -0 -0.555505
    outer loop
      vertex -25.2182 -1.42 25.725
      vertex -25.0111 -2.24 25.415
      vertex -25.2182 -2.24 25.725
    endloop
  endfacet
  facet normal 0.831513 0 -0.555505
    outer loop
      vertex 25.2182 -2.24 25.725
      vertex 25.0111 -1.42 25.415
      vertex 25.2182 -1.42 25.725
    endloop
  endfacet
  facet normal 0.831513 0 -0.555505
    outer loop
      vertex 25.0111 -1.42 25.415
      vertex 25.2182 -2.24 25.725
      vertex 25.0111 -2.24 25.415
    endloop
  endfacet
  facet normal 0.997856 0 -0.0654508
    outer loop
      vertex 25.6 -2.24 27.15
      vertex 25.5756 -1.42 26.778
      vertex 25.6 -1.42 27.15
    endloop
  endfacet
  facet normal 0.997856 0 -0.0654508
    outer loop
      vertex 25.5756 -1.42 26.778
      vertex 25.6 -2.24 27.15
      vertex 25.5756 -2.24 26.778
    endloop
  endfacet
  facet normal 0.896881 -0 0.442272
    outer loop
      vertex 25.2182 -2.24 51.475
      vertex 25.3831 -1.42 51.1406
      vertex 25.2182 -1.42 51.475
    endloop
  endfacet
  facet normal 0.896881 0 0.442272
    outer loop
      vertex 25.3831 -1.42 51.1406
      vertex 25.2182 -2.24 51.475
      vertex 25.3831 -2.24 51.1406
    endloop
  endfacet
  facet normal -0.831513 0 0.555505
    outer loop
      vertex -25.2182 -2.24 51.475
      vertex -25.0111 -1.42 51.785
      vertex -25.2182 -1.42 51.475
    endloop
  endfacet
  facet normal -0.831513 0 0.555505
    outer loop
      vertex -25.0111 -1.42 51.785
      vertex -25.2182 -2.24 51.475
      vertex -25.0111 -2.24 51.785
    endloop
  endfacet
  facet normal -0.896881 0 0.442272
    outer loop
      vertex -25.3831 -2.24 51.1406
      vertex -25.2182 -1.42 51.475
      vertex -25.3831 -1.42 51.1406
    endloop
  endfacet
  facet normal -0.896881 0 0.442272
    outer loop
      vertex -25.2182 -1.42 51.475
      vertex -25.3831 -2.24 51.1406
      vertex -25.2182 -2.24 51.475
    endloop
  endfacet
  facet normal 0.321292 0 -0.94698
    outer loop
      vertex 23.4876 -2.24 24.3971
      vertex 23.8407 -1.42 24.5169
      vertex 23.8407 -2.24 24.5169
    endloop
  endfacet
  facet normal 0.321292 0 -0.94698
    outer loop
      vertex 23.8407 -1.42 24.5169
      vertex 23.4876 -2.24 24.3971
      vertex 23.4876 -1.42 24.3971
    endloop
  endfacet
  facet normal 0.94698 0 -0.321292
    outer loop
      vertex 25.5029 -2.24 26.4124
      vertex 25.3831 -1.42 26.0593
      vertex 25.5029 -1.42 26.4124
    endloop
  endfacet
  facet normal 0.94698 0 -0.321292
    outer loop
      vertex 25.3831 -1.42 26.0593
      vertex 25.5029 -2.24 26.4124
      vertex 25.3831 -2.24 26.0593
    endloop
  endfacet
  facet normal -0.980797 0 -0.195033
    outer loop
      vertex -25.5029 -2.24 26.4124
      vertex -25.5756 -1.42 26.778
      vertex -25.5029 -1.42 26.4124
    endloop
  endfacet
  facet normal -0.980797 -0 -0.195033
    outer loop
      vertex -25.5756 -1.42 26.778
      vertex -25.5029 -2.24 26.4124
      vertex -25.5756 -2.24 26.778
    endloop
  endfacet
  facet normal -0.997856 0 -0.0654508
    outer loop
      vertex -25.5756 -2.24 26.778
      vertex -25.6 -1.42 27.15
      vertex -25.5756 -1.42 26.778
    endloop
  endfacet
  facet normal -0.997856 -0 -0.0654508
    outer loop
      vertex -25.6 -1.42 27.15
      vertex -25.5756 -2.24 26.778
      vertex -25.6 -2.24 27.15
    endloop
  endfacet
  facet normal 0.751862 -0 0.659321
    outer loop
      vertex 24.7653 -2.24 52.0653
      vertex 25.0111 -1.42 51.785
      vertex 24.7653 -1.42 52.0653
    endloop
  endfacet
  facet normal 0.751862 0 0.659321
    outer loop
      vertex 25.0111 -1.42 51.785
      vertex 24.7653 -2.24 52.0653
      vertex 25.0111 -2.24 51.785
    endloop
  endfacet
  facet normal 0 1 0
    outer loop
      vertex 25.6 -1.42 50.05
      vertex 22.75 -1.42 52.9
      vertex 23.122 -1.42 52.8756
    endloop
  endfacet
  facet normal 0 1 0
    outer loop
      vertex 22.75 -1.42 52.9
      vertex 22.75 -1.42 24.3
      vertex -22.75 -1.42 52.9
    endloop
  endfacet
  facet normal 0 1 0
    outer loop
      vertex 25.6 -1.42 50.05
      vertex 23.122 -1.42 52.8756
      vertex 23.4876 -1.42 52.8029
    endloop
  endfacet
  facet normal 0 1 0
    outer loop
      vertex -22.75 -1.42 24.3
      vertex -22.75 -1.42 52.9
      vertex 22.75 -1.42 24.3
    endloop
  endfacet
  facet normal 0 1 0
    outer loop
      vertex 25.6 -1.42 50.05
      vertex 23.4876 -1.42 52.8029
      vertex 23.8407 -1.42 52.6831
    endloop
  endfacet
  facet normal -0 1 0
    outer loop
      vertex -25.6 -1.42 50.05
      vertex -22.75 -1.42 52.9
      vertex -22.75 -1.42 24.3
    endloop
  endfacet
  facet normal 0 1 0
    outer loop
      vertex 25.6 -1.42 50.05
      vertex 23.8407 -1.42 52.6831
      vertex 24.175 -1.42 52.5182
    endloop
  endfacet
  facet normal 0 1 0
    outer loop
      vertex -22.75 -1.42 52.9
      vertex -25.6 -1.42 50.05
      vertex -23.122 -1.42 52.8756
    endloop
  endfacet
  facet normal 0 1 0
    outer loop
      vertex 25.6 -1.42 50.05
      vertex 24.175 -1.42 52.5182
      vertex 24.485 -1.42 52.3111
    endloop
  endfacet
  facet normal 0 1 0
    outer loop
      vertex -23.122 -1.42 52.8756
      vertex -25.6 -1.42 50.05
      vertex -23.4876 -1.42 52.8029
    endloop
  endfacet
  facet normal 0 1 0
    outer loop
      vertex 25.6 -1.42 50.05
      vertex 24.485 -1.42 52.3111
      vertex 24.7653 -1.42 52.0653
    endloop
  endfacet
  facet normal 0 1 0
    outer loop
      vertex 22.75 -1.42 52.9
      vertex 25.6 -1.42 50.05
      vertex 22.75 -1.42 24.3
    endloop
  endfacet
  facet normal 0 1 0
    outer loop
      vertex 25.6 -1.42 50.05
      vertex 24.7653 -1.42 52.0653
      vertex 25.0111 -1.42 51.785
    endloop
  endfacet
  facet normal 0 1 0
    outer loop
      vertex -23.4876 -1.42 52.8029
      vertex -25.6 -1.42 50.05
      vertex -23.8407 -1.42 52.6831
    endloop
  endfacet
  facet normal 0 1 0
    outer loop
      vertex 25.6 -1.42 50.05
      vertex 25.0111 -1.42 51.785
      vertex 25.2182 -1.42 51.475
    endloop
  endfacet
  facet normal 0 1 0
    outer loop
      vertex -24.485 -1.42 52.3111
      vertex -25.6 -1.42 50.05
      vertex -24.7653 -1.42 52.0653
    endloop
  endfacet
  facet normal 0 1 0
    outer loop
      vertex 25.6 -1.42 50.05
      vertex 25.2182 -1.42 51.475
      vertex 25.3831 -1.42 51.1406
    endloop
  endfacet
  facet normal 0 1 0
    outer loop
      vertex -24.7653 -1.42 52.0653
      vertex -25.6 -1.42 50.05
      vertex -25.0111 -1.42 51.785
    endloop
  endfacet
  facet normal 0 1 0
    outer loop
      vertex 25.6 -1.42 50.05
      vertex 25.3831 -1.42 51.1406
      vertex 25.5029 -1.42 50.7876
    endloop
  endfacet
  facet normal 0 1 0
    outer loop
      vertex -25.0111 -1.42 51.785
      vertex -25.6 -1.42 50.05
      vertex -25.2182 -1.42 51.475
    endloop
  endfacet
  facet normal 0 1 0
    outer loop
      vertex 25.6 -1.42 50.05
      vertex 25.5029 -1.42 50.7876
      vertex 25.5756 -1.42 50.422
    endloop
  endfacet
  facet normal 0 1 0
    outer loop
      vertex -25.2182 -1.42 51.475
      vertex -25.6 -1.42 50.05
      vertex -25.3831 -1.42 51.1406
    endloop
  endfacet
  facet normal 0 1 0
    outer loop
      vertex -25.3831 -1.42 51.1406
      vertex -25.6 -1.42 50.05
      vertex -25.5029 -1.42 50.7876
    endloop
  endfacet
  facet normal 0 1 0
    outer loop
      vertex -25.5029 -1.42 50.7876
      vertex -25.6 -1.42 50.05
      vertex -25.5756 -1.42 50.422
    endloop
  endfacet
  facet normal 0 1 0
    outer loop
      vertex 22.75 -1.42 24.3
      vertex 25.6 -1.42 50.05
      vertex 25.6 -1.42 27.15
    endloop
  endfacet
  facet normal 0 1 0
    outer loop
      vertex -23.8407 -1.42 52.6831
      vertex -25.6 -1.42 50.05
      vertex -24.175 -1.42 52.5182
    endloop
  endfacet
  facet normal 0 1 0
    outer loop
      vertex 22.75 -1.42 24.3
      vertex 25.6 -1.42 27.15
      vertex 25.5756 -1.42 26.778
    endloop
  endfacet
  facet normal 0 1 0
    outer loop
      vertex -24.175 -1.42 52.5182
      vertex -25.6 -1.42 50.05
      vertex -24.485 -1.42 52.3111
    endloop
  endfacet
  facet normal 0 1 0
    outer loop
      vertex 22.75 -1.42 24.3
      vertex 25.5756 -1.42 26.778
      vertex 25.5029 -1.42 26.4124
    endloop
  endfacet
  facet normal 0 1 0
    outer loop
      vertex -25.6 -1.42 50.05
      vertex -22.75 -1.42 24.3
      vertex -25.6 -1.42 27.15
    endloop
  endfacet
  facet normal 0 1 0
    outer loop
      vertex 22.75 -1.42 24.3
      vertex 25.5029 -1.42 26.4124
      vertex 25.3831 -1.42 26.0593
    endloop
  endfacet
  facet normal 0 1 0
    outer loop
      vertex -25.6 -1.42 27.15
      vertex -22.75 -1.42 24.3
      vertex -25.5756 -1.42 26.778
    endloop
  endfacet
  facet normal 0 1 0
    outer loop
      vertex 22.75 -1.42 24.3
      vertex 25.3831 -1.42 26.0593
      vertex 25.2182 -1.42 25.725
    endloop
  endfacet
  facet normal 0 1 0
    outer loop
      vertex -25.5756 -1.42 26.778
      vertex -22.75 -1.42 24.3
      vertex -25.5029 -1.42 26.4124
    endloop
  endfacet
  facet normal 0 1 0
    outer loop
      vertex 22.75 -1.42 24.3
      vertex 25.2182 -1.42 25.725
      vertex 25.0111 -1.42 25.415
    endloop
  endfacet
  facet normal 0 1 0
    outer loop
      vertex -25.5029 -1.42 26.4124
      vertex -22.75 -1.42 24.3
      vertex -25.3831 -1.42 26.0593
    endloop
  endfacet
  facet normal 0 1 0
    outer loop
      vertex 22.75 -1.42 24.3
      vertex 25.0111 -1.42 25.415
      vertex 24.7653 -1.42 25.1347
    endloop
  endfacet
  facet normal 0 1 0
    outer loop
      vertex -25.3831 -1.42 26.0593
      vertex -22.75 -1.42 24.3
      vertex -25.2182 -1.42 25.725
    endloop
  endfacet
  facet normal 0 1 0
    outer loop
      vertex 22.75 -1.42 24.3
      vertex 24.7653 -1.42 25.1347
      vertex 24.485 -1.42 24.8889
    endloop
  endfacet
  facet normal 0 1 0
    outer loop
      vertex -25.2182 -1.42 25.725
      vertex -22.75 -1.42 24.3
      vertex -25.0111 -1.42 25.415
    endloop
  endfacet
  facet normal 0 1 0
    outer loop
      vertex 22.75 -1.42 24.3
      vertex 24.485 -1.42 24.8889
      vertex 24.175 -1.42 24.6818
    endloop
  endfacet
  facet normal 0 1 0
    outer loop
      vertex -25.0111 -1.42 25.415
      vertex -22.75 -1.42 24.3
      vertex -24.7653 -1.42 25.1347
    endloop
  endfacet
  facet normal 0 1 0
    outer loop
      vertex 22.75 -1.42 24.3
      vertex 24.175 -1.42 24.6818
      vertex 23.8407 -1.42 24.5169
    endloop
  endfacet
  facet normal 0 1 0
    outer loop
      vertex -24.7653 -1.42 25.1347
      vertex -22.75 -1.42 24.3
      vertex -24.485 -1.42 24.8889
    endloop
  endfacet
  facet normal 0 1 0
    outer loop
      vertex 22.75 -1.42 24.3
      vertex 23.8407 -1.42 24.5169
      vertex 23.4876 -1.42 24.3971
    endloop
  endfacet
  facet normal 0 1 0
    outer loop
      vertex -24.485 -1.42 24.8889
      vertex -22.75 -1.42 24.3
      vertex -24.175 -1.42 24.6818
    endloop
  endfacet
  facet normal 0 1 0
    outer loop
      vertex 22.75 -1.42 24.3
      vertex 23.4876 -1.42 24.3971
      vertex 23.122 -1.42 24.3244
    endloop
  endfacet
  facet normal 0 1 0
    outer loop
      vertex -24.175 -1.42 24.6818
      vertex -22.75 -1.42 24.3
      vertex -23.8407 -1.42 24.5169
    endloop
  endfacet
  facet normal 0 1 0
    outer loop
      vertex -23.8407 -1.42 24.5169
      vertex -22.75 -1.42 24.3
      vertex -23.4876 -1.42 24.3971
    endloop
  endfacet
  facet normal 0 1 0
    outer loop
      vertex -23.4876 -1.42 24.3971
      vertex -22.75 -1.42 24.3
      vertex -23.122 -1.42 24.3244
    endloop
  endfacet
  facet normal -0.896829 0 -0.442378
    outer loop
      vertex -25.2182 -2.24 25.725
      vertex -25.3831 -1.42 26.0593
      vertex -25.2182 -1.42 25.725
    endloop
  endfacet
  facet normal -0.896829 -0 -0.442378
    outer loop
      vertex -25.3831 -1.42 26.0593
      vertex -25.2182 -2.24 25.725
      vertex -25.3831 -2.24 26.0593
    endloop
  endfacet
  facet normal 0.555505 0 0.831513
    outer loop
      vertex 24.175 -1.42 52.5182
      vertex 24.485 -2.24 52.3111
      vertex 24.485 -1.42 52.3111
    endloop
  endfacet
  facet normal 0.555505 0 0.831513
    outer loop
      vertex 24.485 -2.24 52.3111
      vertex 24.175 -1.42 52.5182
      vertex 24.175 -2.24 52.5182
    endloop
  endfacet
  facet normal 0.980797 0 -0.195033
    outer loop
      vertex 25.5756 -2.24 26.778
      vertex 25.5029 -1.42 26.4124
      vertex 25.5756 -1.42 26.778
    endloop
  endfacet
  facet normal 0.980797 0 -0.195033
    outer loop
      vertex 25.5029 -1.42 26.4124
      vertex 25.5756 -2.24 26.778
      vertex 25.5029 -2.24 26.4124
    endloop
  endfacet
  facet normal 0 -1 0
    outer loop
      vertex 22.5 -2.24 33.88
      vertex -16.091 -2.24 36.8
      vertex -16.4145 -2.24 36.6458
    endloop
  endfacet
  facet normal 0 -1 0
    outer loop
      vertex -14.7073 -2.24 40
      vertex -12.0055 -2.24 38.747
      vertex 22.5 -2.24 40
    endloop
  endfacet
  facet normal 0 -1 0
    outer loop
      vertex -22.5 -2.24 49.88
      vertex -22.75 -2.24 52.9
      vertex -23.122 -2.24 52.8756
    endloop
  endfacet
  facet normal 0 -1 0
    outer loop
      vertex -22.75 -2.24 52.9
      vertex -22.5 -2.24 49.88
      vertex 22.75 -2.24 52.9
    endloop
  endfacet
  facet normal 0 -1 0
    outer loop
      vertex -22.5 -2.24 49.88
      vertex -23.122 -2.24 52.8756
      vertex -23.4876 -2.24 52.8029
    endloop
  endfacet
  facet normal 0 -1 0
    outer loop
      vertex 22.5 -2.24 49.88
      vertex 22.75 -2.24 52.9
      vertex -22.5 -2.24 49.88
    endloop
  endfacet
  facet normal 0 -1 0
    outer loop
      vertex -22.5 -2.24 49.88
      vertex -23.4876 -2.24 52.8029
      vertex -23.8407 -2.24 52.6831
    endloop
  endfacet
  facet normal 0 -1 -0
    outer loop
      vertex 22.75 -2.24 52.9
      vertex 22.5 -2.24 49.88
      vertex 23.122 -2.24 52.8756
    endloop
  endfacet
  facet normal 0 -1 0
    outer loop
      vertex -22.5 -2.24 49.88
      vertex -23.8407 -2.24 52.6831
      vertex -24.175 -2.24 52.5182
    endloop
  endfacet
  facet normal 0 -1 -0
    outer loop
      vertex 23.122 -2.24 52.8756
      vertex 22.5 -2.24 49.88
      vertex 23.4876 -2.24 52.8029
    endloop
  endfacet
  facet normal 0 -1 0
    outer loop
      vertex -22.5 -2.24 49.88
      vertex -24.175 -2.24 52.5182
      vertex -24.485 -2.24 52.3111
    endloop
  endfacet
  facet normal 0 -1 -0
    outer loop
      vertex 23.4876 -2.24 52.8029
      vertex 22.5 -2.24 49.88
      vertex 23.8407 -2.24 52.6831
    endloop
  endfacet
  facet normal 0 -1 0
    outer loop
      vertex -22.5 -2.24 49.88
      vertex -24.485 -2.24 52.3111
      vertex -24.7653 -2.24 52.0653
    endloop
  endfacet
  facet normal 0 -1 -0
    outer loop
      vertex 23.8407 -2.24 52.6831
      vertex 22.5 -2.24 49.88
      vertex 24.175 -2.24 52.5182
    endloop
  endfacet
  facet normal 0 -1 0
    outer loop
      vertex -22.5 -2.24 49.88
      vertex -24.7653 -2.24 52.0653
      vertex -25.0111 -2.24 51.785
    endloop
  endfacet
  facet normal 0 -1 -0
    outer loop
      vertex 24.175 -2.24 52.5182
      vertex 22.5 -2.24 49.88
      vertex 24.485 -2.24 52.3111
    endloop
  endfacet
  facet normal 0 -1 0
    outer loop
      vertex -22.5 -2.24 49.88
      vertex -25.0111 -2.24 51.785
      vertex -25.2182 -2.24 51.475
    endloop
  endfacet
  facet normal 0 -1 -0
    outer loop
      vertex 24.485 -2.24 52.3111
      vertex 22.5 -2.24 49.88
      vertex 24.7653 -2.24 52.0653
    endloop
  endfacet
  facet normal 0 -1 0
    outer loop
      vertex -22.5 -2.24 49.88
      vertex -25.2182 -2.24 51.475
      vertex -25.3831 -2.24 51.1406
    endloop
  endfacet
  facet normal 0 -1 -0
    outer loop
      vertex 24.7653 -2.24 52.0653
      vertex 22.5 -2.24 49.88
      vertex 25.0111 -2.24 51.785
    endloop
  endfacet
  facet normal 0 -1 0
    outer loop
      vertex -22.5 -2.24 49.88
      vertex -25.3831 -2.24 51.1406
      vertex -25.5029 -2.24 50.7876
    endloop
  endfacet
  facet normal 0 -1 -0
    outer loop
      vertex 25.0111 -2.24 51.785
      vertex 22.5 -2.24 49.88
      vertex 25.2182 -2.24 51.475
    endloop
  endfacet
  facet normal 0 -1 0
    outer loop
      vertex -22.5 -2.24 49.88
      vertex -25.5029 -2.24 50.7876
      vertex -25.5756 -2.24 50.422
    endloop
  endfacet
  facet normal 0 -1 -0
    outer loop
      vertex 25.2182 -2.24 51.475
      vertex 22.5 -2.24 49.88
      vertex 25.3831 -2.24 51.1406
    endloop
  endfacet
  facet normal 0 -1 0
    outer loop
      vertex -22.5 -2.24 49.88
      vertex -25.5756 -2.24 50.422
      vertex -25.6 -2.24 50.05
    endloop
  endfacet
  facet normal 0 -1 -0
    outer loop
      vertex 25.3831 -2.24 51.1406
      vertex 22.5 -2.24 49.88
      vertex 25.5029 -2.24 50.7876
    endloop
  endfacet
  facet normal 0 -1 -0
    outer loop
      vertex 25.5029 -2.24 50.7876
      vertex 22.5 -2.24 49.88
      vertex 25.5756 -2.24 50.422
    endloop
  endfacet
  facet normal 0 -1 0
    outer loop
      vertex -25.6 -2.24 50.05
      vertex -22.5 -2.24 49.6
      vertex -22.5 -2.24 49.88
    endloop
  endfacet
  facet normal 0 -1 0
    outer loop
      vertex -22.5 -2.24 49.6
      vertex -22.5 -2.24 46.68
      vertex 22.5 -2.24 49.6
    endloop
  endfacet
  facet normal 0 -1 0
    outer loop
      vertex -25.6 -2.24 50.05
      vertex -22.5 -2.24 46.68
      vertex -22.5 -2.24 49.6
    endloop
  endfacet
  facet normal 0 -1 0
    outer loop
      vertex -25.6 -2.24 50.05
      vertex -22.5 -2.24 46.4
      vertex -22.5 -2.24 46.68
    endloop
  endfacet
  facet normal 0 -1 0
    outer loop
      vertex -22.5 -2.24 46.4
      vertex -22.5 -2.24 43.48
      vertex 22.5 -2.24 46.4
    endloop
  endfacet
  facet normal 0 -1 0
    outer loop
      vertex -25.6 -2.24 50.05
      vertex -22.5 -2.24 43.48
      vertex -22.5 -2.24 46.4
    endloop
  endfacet
  facet normal 0 -1 0
    outer loop
      vertex -25.6 -2.24 50.05
      vertex -22.5 -2.24 43.2
      vertex -22.5 -2.24 43.48
    endloop
  endfacet
  facet normal 0 -1 0
    outer loop
      vertex -22.5 -2.24 43.2
      vertex -16.4059 -2.24 40.7878
      vertex 22.5 -2.24 43.2
    endloop
  endfacet
  facet normal 0 -1 0
    outer loop
      vertex -16.6437 -2.24 40.28
      vertex -22.5 -2.24 43.2
      vertex -22.5 -2.24 40.28
    endloop
  endfacet
  facet normal 0 -1 0
    outer loop
      vertex -25.6 -2.24 50.05
      vertex -22.5 -2.24 40.28
      vertex -22.5 -2.24 43.2
    endloop
  endfacet
  facet normal 0 -1 0
    outer loop
      vertex -25.6 -2.24 50.05
      vertex -22.5 -2.24 40
      vertex -22.5 -2.24 40.28
    endloop
  endfacet
  facet normal 0 -1 0
    outer loop
      vertex -16.7159 -2.24 37.3347
      vertex -16.4892 -2.24 40
      vertex -22.5 -2.24 40
    endloop
  endfacet
  facet normal 0 -1 -0
    outer loop
      vertex -16.4892 -2.24 40
      vertex -16.7159 -2.24 37.3347
      vertex -13.7278 -2.24 38.7383
    endloop
  endfacet
  facet normal 0 -1 0
    outer loop
      vertex -22.5 -2.24 40
      vertex -22.5 -2.24 37.08
      vertex -16.7159 -2.24 37.3347
    endloop
  endfacet
  facet normal 0 -1 0
    outer loop
      vertex -25.6 -2.24 50.05
      vertex -22.5 -2.24 37.08
      vertex -22.5 -2.24 40
    endloop
  endfacet
  facet normal 0 -1 0
    outer loop
      vertex -25.6 -2.24 27.15
      vertex -22.5 -2.24 37.08
      vertex -25.6 -2.24 50.05
    endloop
  endfacet
  facet normal 0 -1 0
    outer loop
      vertex -22.5 -2.24 36.8
      vertex -16.4145 -2.24 36.6458
      vertex -16.4819 -2.24 36.8
    endloop
  endfacet
  facet normal 0 -1 0
    outer loop
      vertex -22.5 -2.24 36.8
      vertex -22.5 -2.24 33.88
      vertex -16.4145 -2.24 36.6458
    endloop
  endfacet
  facet normal 0 -1 -0
    outer loop
      vertex -22.5 -2.24 37.08
      vertex -25.6 -2.24 27.15
      vertex -22.5 -2.24 36.8
    endloop
  endfacet
  facet normal 0 -1 -0
    outer loop
      vertex -22.5 -2.24 36.8
      vertex -25.6 -2.24 27.15
      vertex -22.5 -2.24 33.88
    endloop
  endfacet
  facet normal 0 -1 0
    outer loop
      vertex -22.5 -2.24 33.6
      vertex -22.5 -2.24 30.68
      vertex 22.5 -2.24 33.6
    endloop
  endfacet
  facet normal 0 -1 -0
    outer loop
      vertex -22.5 -2.24 33.88
      vertex -25.6 -2.24 27.15
      vertex -22.5 -2.24 33.6
    endloop
  endfacet
  facet normal 0 -1 -0
    outer loop
      vertex -22.5 -2.24 33.6
      vertex -25.6 -2.24 27.15
      vertex -22.5 -2.24 30.68
    endloop
  endfacet
  facet normal 0 -1 0
    outer loop
      vertex -22.5 -2.24 30.4
      vertex -22.5 -2.24 27.48
      vertex 22.5 -2.24 30.4
    endloop
  endfacet
  facet normal 0 -1 -0
    outer loop
      vertex -22.5 -2.24 30.68
      vertex -25.6 -2.24 27.15
      vertex -22.5 -2.24 30.4
    endloop
  endfacet
  facet normal 0 -1 -0
    outer loop
      vertex -22.5 -2.24 30.4
      vertex -25.6 -2.24 27.15
      vertex -22.5 -2.24 27.48
    endloop
  endfacet
  facet normal 0 -1 0
    outer loop
      vertex -25.5756 -2.24 26.778
      vertex -22.5 -2.24 27.2
      vertex -25.6 -2.24 27.15
    endloop
  endfacet
  facet normal 0 -1 -0
    outer loop
      vertex -22.5 -2.24 27.48
      vertex -25.6 -2.24 27.15
      vertex -22.5 -2.24 27.2
    endloop
  endfacet
  facet normal 0 -1 -0
    outer loop
      vertex 25.5756 -2.24 50.422
      vertex 22.5 -2.24 49.88
      vertex 25.6 -2.24 50.05
    endloop
  endfacet
  facet normal 0 -1 0
    outer loop
      vertex 22.5 -2.24 49.6
      vertex 25.6 -2.24 50.05
      vertex 22.5 -2.24 49.88
    endloop
  endfacet
  facet normal 0 -1 0
    outer loop
      vertex 22.5 -2.24 46.68
      vertex 22.5 -2.24 49.6
      vertex -22.5 -2.24 46.68
    endloop
  endfacet
  facet normal 0 -1 0
    outer loop
      vertex 22.5 -2.24 46.68
      vertex 25.6 -2.24 50.05
      vertex 22.5 -2.24 49.6
    endloop
  endfacet
  facet normal 0 -1 0
    outer loop
      vertex 22.5 -2.24 46.4
      vertex 25.6 -2.24 50.05
      vertex 22.5 -2.24 46.68
    endloop
  endfacet
  facet normal 0 -1 0
    outer loop
      vertex 22.5 -2.24 43.48
      vertex 22.5 -2.24 46.4
      vertex -22.5 -2.24 43.48
    endloop
  endfacet
  facet normal 0 -1 0
    outer loop
      vertex 22.5 -2.24 43.48
      vertex 25.6 -2.24 50.05
      vertex 22.5 -2.24 46.4
    endloop
  endfacet
  facet normal 0 -1 0
    outer loop
      vertex 22.5 -2.24 43.2
      vertex 25.6 -2.24 50.05
      vertex 22.5 -2.24 43.48
    endloop
  endfacet
  facet normal 0 -1 0
    outer loop
      vertex -15.3111 -2.24 40.28
      vertex 22.5 -2.24 43.2
      vertex -16.4059 -2.24 40.7878
    endloop
  endfacet
  facet normal 0 -1 0
    outer loop
      vertex 22.5 -2.24 40.28
      vertex 22.5 -2.24 43.2
      vertex -15.3111 -2.24 40.28
    endloop
  endfacet
  facet normal 0 -1 0
    outer loop
      vertex 22.5 -2.24 40.28
      vertex 25.6 -2.24 50.05
      vertex 22.5 -2.24 43.2
    endloop
  endfacet
  facet normal 0 -1 0
    outer loop
      vertex 22.5 -2.24 40
      vertex 25.6 -2.24 50.05
      vertex 22.5 -2.24 40.28
    endloop
  endfacet
  facet normal 0 -1 0
    outer loop
      vertex 22.5 -2.24 37.08
      vertex -12.0055 -2.24 38.747
      vertex -15.5035 -2.24 37.08
    endloop
  endfacet
  facet normal 0 -1 0
    outer loop
      vertex -12.0055 -2.24 38.747
      vertex 22.5 -2.24 37.08
      vertex 22.5 -2.24 40
    endloop
  endfacet
  facet normal 0 -1 0
    outer loop
      vertex 22.5 -2.24 37.08
      vertex 25.6 -2.24 50.05
      vertex 22.5 -2.24 40
    endloop
  endfacet
  facet normal 0 -1 0
    outer loop
      vertex 25.6 -2.24 27.15
      vertex 22.5 -2.24 37.08
      vertex 22.5 -2.24 36.8
    endloop
  endfacet
  facet normal 0 -1 0
    outer loop
      vertex 22.5 -2.24 33.88
      vertex -16.4145 -2.24 36.6458
      vertex -22.5 -2.24 33.88
    endloop
  endfacet
  facet normal 0 -1 0
    outer loop
      vertex -16.091 -2.24 36.8
      vertex 22.5 -2.24 33.88
      vertex 22.5 -2.24 36.8
    endloop
  endfacet
  facet normal 0 -1 0
    outer loop
      vertex 25.6 -2.24 27.15
      vertex 22.5 -2.24 36.8
      vertex 22.5 -2.24 33.88
    endloop
  endfacet
  facet normal 0 -1 0
    outer loop
      vertex 25.6 -2.24 27.15
      vertex 22.5 -2.24 33.88
      vertex 22.5 -2.24 33.6
    endloop
  endfacet
  facet normal 0 -1 0
    outer loop
      vertex 22.5 -2.24 30.68
      vertex 22.5 -2.24 33.6
      vertex -22.5 -2.24 30.68
    endloop
  endfacet
  facet normal 0 -1 0
    outer loop
      vertex 25.6 -2.24 27.15
      vertex 22.5 -2.24 33.6
      vertex 22.5 -2.24 30.68
    endloop
  endfacet
  facet normal 0 -1 0
    outer loop
      vertex 25.6 -2.24 27.15
      vertex 22.5 -2.24 30.68
      vertex 22.5 -2.24 30.4
    endloop
  endfacet
  facet normal 0 -1 0
    outer loop
      vertex 22.5 -2.24 27.48
      vertex 22.5 -2.24 30.4
      vertex -22.5 -2.24 27.48
    endloop
  endfacet
  facet normal 0 -1 0
    outer loop
      vertex 25.6 -2.24 27.15
      vertex 22.5 -2.24 30.4
      vertex 22.5 -2.24 27.48
    endloop
  endfacet
  facet normal 0 -1 0
    outer loop
      vertex 25.6 -2.24 27.15
      vertex 22.5 -2.24 27.48
      vertex 22.5 -2.24 27.2
    endloop
  endfacet
  facet normal 0 -1 0
    outer loop
      vertex 22.5 -2.24 37.08
      vertex 25.6 -2.24 27.15
      vertex 25.6 -2.24 50.05
    endloop
  endfacet
  facet normal 0 -1 -0
    outer loop
      vertex -22.5 -2.24 27.2
      vertex -22.75 -2.24 24.3
      vertex 22.5 -2.24 27.2
    endloop
  endfacet
  facet normal 0 -1 0
    outer loop
      vertex -25.5029 -2.24 26.4124
      vertex -22.5 -2.24 27.2
      vertex -25.5756 -2.24 26.778
    endloop
  endfacet
  facet normal 0 -1 0
    outer loop
      vertex 22.75 -2.24 24.3
      vertex 22.5 -2.24 27.2
      vertex -22.75 -2.24 24.3
    endloop
  endfacet
  facet normal 0 -1 0
    outer loop
      vertex -25.3831 -2.24 26.0593
      vertex -22.5 -2.24 27.2
      vertex -25.5029 -2.24 26.4124
    endloop
  endfacet
  facet normal -0 -1 0
    outer loop
      vertex 23.122 -2.24 24.3244
      vertex 22.5 -2.24 27.2
      vertex 22.75 -2.24 24.3
    endloop
  endfacet
  facet normal 0 -1 0
    outer loop
      vertex -25.2182 -2.24 25.725
      vertex -22.5 -2.24 27.2
      vertex -25.3831 -2.24 26.0593
    endloop
  endfacet
  facet normal 0 -1 0
    outer loop
      vertex 22.5 -2.24 27.2
      vertex 25.5756 -2.24 26.778
      vertex 25.6 -2.24 27.15
    endloop
  endfacet
  facet normal 0 -1 0
    outer loop
      vertex -25.0111 -2.24 25.415
      vertex -22.5 -2.24 27.2
      vertex -25.2182 -2.24 25.725
    endloop
  endfacet
  facet normal 0 -1 0
    outer loop
      vertex 22.5 -2.24 27.2
      vertex 25.5029 -2.24 26.4124
      vertex 25.5756 -2.24 26.778
    endloop
  endfacet
  facet normal 0 -1 0
    outer loop
      vertex -24.7653 -2.24 25.1347
      vertex -22.5 -2.24 27.2
      vertex -25.0111 -2.24 25.415
    endloop
  endfacet
  facet normal 0 -1 0
    outer loop
      vertex 22.5 -2.24 27.2
      vertex 25.3831 -2.24 26.0593
      vertex 25.5029 -2.24 26.4124
    endloop
  endfacet
  facet normal 0 -1 0
    outer loop
      vertex -24.485 -2.24 24.8889
      vertex -22.5 -2.24 27.2
      vertex -24.7653 -2.24 25.1347
    endloop
  endfacet
  facet normal 0 -1 0
    outer loop
      vertex 22.5 -2.24 27.2
      vertex 25.2182 -2.24 25.725
      vertex 25.3831 -2.24 26.0593
    endloop
  endfacet
  facet normal 0 -1 0
    outer loop
      vertex -24.175 -2.24 24.6818
      vertex -22.5 -2.24 27.2
      vertex -24.485 -2.24 24.8889
    endloop
  endfacet
  facet normal 0 -1 0
    outer loop
      vertex 22.5 -2.24 27.2
      vertex 25.0111 -2.24 25.415
      vertex 25.2182 -2.24 25.725
    endloop
  endfacet
  facet normal 0 -1 0
    outer loop
      vertex -23.8407 -2.24 24.5169
      vertex -22.5 -2.24 27.2
      vertex -24.175 -2.24 24.6818
    endloop
  endfacet
  facet normal 0 -1 0
    outer loop
      vertex 22.5 -2.24 27.2
      vertex 24.7653 -2.24 25.1347
      vertex 25.0111 -2.24 25.415
    endloop
  endfacet
  facet normal 0 -1 0
    outer loop
      vertex -23.4876 -2.24 24.3971
      vertex -22.5 -2.24 27.2
      vertex -23.8407 -2.24 24.5169
    endloop
  endfacet
  facet normal 0 -1 0
    outer loop
      vertex 22.5 -2.24 27.2
      vertex 24.485 -2.24 24.8889
      vertex 24.7653 -2.24 25.1347
    endloop
  endfacet
  facet normal 0 -1 0
    outer loop
      vertex -23.122 -2.24 24.3244
      vertex -22.5 -2.24 27.2
      vertex -23.4876 -2.24 24.3971
    endloop
  endfacet
  facet normal 0 -1 0
    outer loop
      vertex 22.5 -2.24 27.2
      vertex 24.175 -2.24 24.6818
      vertex 24.485 -2.24 24.8889
    endloop
  endfacet
  facet normal 0 -1 0
    outer loop
      vertex -22.5 -2.24 27.2
      vertex -23.122 -2.24 24.3244
      vertex -22.75 -2.24 24.3
    endloop
  endfacet
  facet normal 0 -1 0
    outer loop
      vertex 22.5 -2.24 27.2
      vertex 23.8407 -2.24 24.5169
      vertex 24.175 -2.24 24.6818
    endloop
  endfacet
  facet normal 0 -1 0
    outer loop
      vertex 22.5 -2.24 27.2
      vertex 23.4876 -2.24 24.3971
      vertex 23.8407 -2.24 24.5169
    endloop
  endfacet
  facet normal 0 -1 0
    outer loop
      vertex 22.5 -2.24 27.2
      vertex 23.122 -2.24 24.3244
      vertex 23.4876 -2.24 24.3971
    endloop
  endfacet
  facet normal 0 -1 0
    outer loop
      vertex -22.5 -2.24 43.2
      vertex -16.6437 -2.24 40.28
      vertex -16.4059 -2.24 40.7878
    endloop
  endfacet
  facet normal 0 -1 -0
    outer loop
      vertex -16.7159 -2.24 37.3347
      vertex -22.5 -2.24 37.08
      vertex -16.6044 -2.24 37.08
    endloop
  endfacet
  facet normal 0 1 -0
    outer loop
      vertex -16.4892 -2.18 40
      vertex -16.6437 -2.18 40.28
      vertex -15.3111 -2.18 40.28
    endloop
  endfacet
  facet normal 0 1 0
    outer loop
      vertex -16.4892 -2.18 40
      vertex -15.3111 -2.18 40.28
      vertex -14.7073 -2.18 40
    endloop
  endfacet
  facet normal 0 1 0
    outer loop
      vertex -16.6437 -2.18 40.28
      vertex -16.4892 -2.18 40
      vertex -16.7245 -2.18 40.1075
    endloop
  endfacet
  facet normal 0 1 -0
    outer loop
      vertex -16.091 -2.18 36.8
      vertex -16.6044 -2.18 37.08
      vertex -15.5035 -2.18 37.08
    endloop
  endfacet
  facet normal 0 1 0
    outer loop
      vertex -16.6044 -2.18 37.08
      vertex -16.091 -2.18 36.8
      vertex -16.4819 -2.18 36.8
    endloop
  endfacet
  facet normal 0 -1 0
    outer loop
      vertex -13.7278 -2.63 38.7383
      vertex -16.4059 -2.63 40.7878
      vertex -16.7245 -2.63 40.1075
    endloop
  endfacet
  facet normal 0 -1 0
    outer loop
      vertex -16.4059 -2.63 40.7878
      vertex -13.7278 -2.63 38.7383
      vertex -12.0055 -2.63 38.747
    endloop
  endfacet
  facet normal 0 -1 0
    outer loop
      vertex -16.4145 -2.63 36.6458
      vertex -13.7278 -2.63 38.7383
      vertex -16.7159 -2.63 37.3347
    endloop
  endfacet
  facet normal 0 -1 -0
    outer loop
      vertex -13.7278 -2.63 38.7383
      vertex -16.4145 -2.63 36.6458
      vertex -12.0055 -2.63 38.747
    endloop
  endfacet
  facet normal 0.420696 0 0.907202
    outer loop
      vertex -14.7073 -2.18 40
      vertex -15.3111 -2.18 40.28
      vertex -14.7073 -2.24 40
    endloop
  endfacet
  facet normal 0.420723 0 0.907189
    outer loop
      vertex -14.7073 -2.24 40
      vertex -12.0055 -2.63 38.747
      vertex -12.0055 -2.24 38.747
    endloop
  endfacet
  facet normal 0.420696 -0 0.907202
    outer loop
      vertex -15.3111 -2.24 40.28
      vertex -14.7073 -2.24 40
      vertex -15.3111 -2.18 40.28
    endloop
  endfacet
  facet normal 0.420696 0.00025288 0.907202
    outer loop
      vertex -16.4059 -2.63 40.7878
      vertex -14.7073 -2.24 40
      vertex -15.3111 -2.24 40.28
    endloop
  endfacet
  facet normal 0.42077 -0 0.907167
    outer loop
      vertex -16.4059 -2.63 40.7878
      vertex -15.3111 -2.24 40.28
      vertex -16.4059 -2.24 40.7878
    endloop
  endfacet
  facet normal 0.420731 6.9904e-05 0.907185
    outer loop
      vertex -14.7073 -2.24 40
      vertex -16.4059 -2.63 40.7878
      vertex -12.0055 -2.63 38.747
    endloop
  endfacet
  facet normal -0.905579 0 0.424178
    outer loop
      vertex -16.7245 -2.18 40.1075
      vertex -16.6437 -2.24 40.28
      vertex -16.6437 -2.18 40.28
    endloop
  endfacet
  facet normal -0.905579 0 0.424178
    outer loop
      vertex -16.7245 -2.63 40.1075
      vertex -16.6437 -2.24 40.28
      vertex -16.7245 -2.18 40.1075
    endloop
  endfacet
  facet normal -0.905608 3.32456e-05 0.424117
    outer loop
      vertex -16.4059 -2.63 40.7878
      vertex -16.6437 -2.24 40.28
      vertex -16.7245 -2.63 40.1075
    endloop
  endfacet
  facet normal -0.905617 0 0.424096
    outer loop
      vertex -16.6437 -2.24 40.28
      vertex -16.4059 -2.63 40.7878
      vertex -16.4059 -2.24 40.7878
    endloop
  endfacet
  facet normal -0.415581 0 -0.909556
    outer loop
      vertex -13.7278 -2.63 38.7383
      vertex -16.4892 -2.24 40
      vertex -13.7278 -2.24 38.7383
    endloop
  endfacet
  facet normal -0.415579 2.14098e-05 -0.909557
    outer loop
      vertex -16.7245 -2.63 40.1075
      vertex -16.4892 -2.24 40
      vertex -13.7278 -2.63 38.7383
    endloop
  endfacet
  facet normal -0.41555 -0 -0.909571
    outer loop
      vertex -16.7245 -2.18 40.1075
      vertex -16.4892 -2.24 40
      vertex -16.7245 -2.63 40.1075
    endloop
  endfacet
  facet normal -0.41555 0 -0.909571
    outer loop
      vertex -16.4892 -2.24 40
      vertex -16.7245 -2.18 40.1075
      vertex -16.4892 -2.18 40
    endloop
  endfacet
  facet normal -0.425161 0 0.905118
    outer loop
      vertex -16.7159 -2.24 37.3347
      vertex -13.7278 -2.63 38.7383
      vertex -13.7278 -2.24 38.7383
    endloop
  endfacet
  facet normal -0.425161 0 0.905118
    outer loop
      vertex -13.7278 -2.63 38.7383
      vertex -16.7159 -2.24 37.3347
      vertex -16.7159 -2.63 37.3347
    endloop
  endfacet
  facet normal -0.916294 0 -0.400507
    outer loop
      vertex -16.4145 -2.63 36.6458
      vertex -16.4819 -2.24 36.8
      vertex -16.4145 -2.24 36.6458
    endloop
  endfacet
  facet normal -0.916157 0.00014682 -0.400819
    outer loop
      vertex -16.4819 -2.24 36.8
      vertex -16.4145 -2.63 36.6458
      vertex -16.6044 -2.24 37.08
    endloop
  endfacet
  facet normal -0.916154 0.000156073 -0.400826
    outer loop
      vertex -16.7159 -2.63 37.3347
      vertex -16.6044 -2.24 37.08
      vertex -16.4145 -2.63 36.6458
    endloop
  endfacet
  facet normal -0.916067 0 -0.401026
    outer loop
      vertex -16.6044 -2.24 37.08
      vertex -16.7159 -2.63 37.3347
      vertex -16.7159 -2.24 37.3347
    endloop
  endfacet
  facet normal -0.916157 0 -0.400819
    outer loop
      vertex -16.4819 -2.24 36.8
      vertex -16.6044 -2.18 37.08
      vertex -16.4819 -2.18 36.8
    endloop
  endfacet
  facet normal -0.916157 -0 -0.400819
    outer loop
      vertex -16.6044 -2.18 37.08
      vertex -16.4819 -2.24 36.8
      vertex -16.6044 -2.24 37.08
    endloop
  endfacet
  facet normal 0.430204 0 -0.902732
    outer loop
      vertex -12.0055 -2.63 38.747
      vertex -15.5035 -2.24 37.08
      vertex -12.0055 -2.24 38.747
    endloop
  endfacet
  facet normal 0.430232 0 -0.902718
    outer loop
      vertex -15.5035 -2.24 37.08
      vertex -16.091 -2.24 36.8
      vertex -15.5035 -2.18 37.08
    endloop
  endfacet
  facet normal 0.430213 0.000102163 -0.902727
    outer loop
      vertex -16.4145 -2.63 36.6458
      vertex -15.5035 -2.24 37.08
      vertex -12.0055 -2.63 38.747
    endloop
  endfacet
  facet normal 0.430232 4.92481e-05 -0.902718
    outer loop
      vertex -15.5035 -2.24 37.08
      vertex -16.4145 -2.63 36.6458
      vertex -16.091 -2.24 36.8
    endloop
  endfacet
  facet normal 0.43028 0 -0.902695
    outer loop
      vertex -16.091 -2.24 36.8
      vertex -16.4145 -2.63 36.6458
      vertex -16.4145 -2.24 36.6458
    endloop
  endfacet
  facet normal 0.430232 0 -0.902718
    outer loop
      vertex -15.5035 -2.18 37.08
      vertex -16.091 -2.24 36.8
      vertex -16.091 -2.18 36.8
    endloop
  endfacet
endsolid OpenSCAD_Model
